<?xml version="1.0" encoding="UTF-8"?>
<svg width="1440px" height="1095px" viewBox="0 0 1440 1095" version="1.1" xmlns="http://www.w3.org/2000/svg" xmlns:xlink="http://www.w3.org/1999/xlink">
    <!-- Generator: Sketch 60 (88103) - https://sketch.com -->
    <title>Group 4</title>
    <desc>Created with Sketch.</desc>
    <defs>
        <linearGradient x1="38.7801877%" y1="-78.1097804%" x2="58.4714694%" y2="117.063718%" id="linearGradient-1">
            <stop stop-color="#E1E1E1" offset="0%"></stop>
            <stop stop-color="#C0C0C0" offset="100%"></stop>
        </linearGradient>
        <linearGradient x1="50%" y1="0%" x2="50%" y2="100%" id="linearGradient-2">
            <stop stop-color="#E1E1E1" offset="0%"></stop>
            <stop stop-color="#C0C0C0" offset="100%"></stop>
        </linearGradient>
        <linearGradient x1="50%" y1="0%" x2="50%" y2="100%" id="linearGradient-3">
            <stop stop-color="#E1E1E1" offset="0%"></stop>
            <stop stop-color="#C0C0C0" offset="100%"></stop>
        </linearGradient>
        <linearGradient x1="77.6765784%" y1="-116.267433%" x2="-86.1874746%" y2="224.26004%" id="linearGradient-4">
            <stop stop-color="#EDEDED" offset="0%"></stop>
            <stop stop-color="#C6C6C6" offset="100%"></stop>
        </linearGradient>
        <linearGradient x1="53.2057695%" y1="121.286798%" x2="37.9685388%" y2="-135.223588%" id="linearGradient-5">
            <stop stop-color="#EDEDED" offset="0%"></stop>
            <stop stop-color="#C6C6C6" offset="100%"></stop>
        </linearGradient>
        <linearGradient x1="53.3047528%" y1="121.286798%" x2="37.5970479%" y2="-135.223588%" id="linearGradient-6">
            <stop stop-color="#EDEDED" offset="0%"></stop>
            <stop stop-color="#C6C6C6" offset="100%"></stop>
        </linearGradient>
        <linearGradient x1="66.0981624%" y1="175.727198%" x2="66.0981624%" y2="-73.3299138%" id="linearGradient-7">
            <stop stop-color="#E1E1E1" offset="0%"></stop>
            <stop stop-color="#C0C0C0" offset="100%"></stop>
        </linearGradient>
    </defs>
    <g id="edit_last" stroke="none" stroke-width="1" fill="none" fill-rule="evenodd">
        <g id="3-copy">
            <g id="Group-4" transform="translate(-162.939128, 0.000000)">
                <path d="M1602.92913,1094.1399 L1364.93913,1094.1399 C1366.54913,1091.9699 1368.34913,1089.8799 1370.34913,1087.8799 L1486.21913,972.0099 L1555.09913,903.1209 C1568.60913,889.6099 1586.43913,884.999909 1602.92913,887.7699 L1602.92913,1094.1399 Z" id="Fill-1" fill="url(#linearGradient-1)"></path>
                <path d="M1391.2615,226.724161 C1402.98894,215.166837 1414.71647,203.609593 1426.44409,192.05243 C1437.83252,180.828081 1457.28101,185.963064 1461.44882,201.295785 L1474.32653,248.65859 L1487.20424,296.022358 C1491.37205,311.354116 1477.13602,325.38383 1461.57879,321.275459 L1413.51849,308.584384 L1365.45917,295.894273 C1349.90194,291.785901 1344.69145,272.62024 1356.07988,261.395891 C1367.80701,249.838567 1379.53421,238.281324 1391.2615,226.724161 Z" id="Fill-4" fill="url(#linearGradient-2)" opacity="0.300000012"></path>
                <path d="M1475.58756,266.184182 C1498.53257,243.579417 1512.97891,229.473635 1518.92659,223.866836 C1518.92659,223.866836 1545.17703,250.117279 1568.09447,273.03472 L1620.95623,325.896476 L1663.30163,401.723304 C1671.45605,431.710419 1643.60294,459.150889 1613.16488,451.115397 L1519.13386,426.293149 L1425.10475,401.472784 C1394.6667,393.437292 1384.47225,355.951515 1406.75397,333.998008 C1429.69834,311.393243 1452.64287,288.788634 1475.58756,266.184182 Z" id="Fill-4" fill="url(#linearGradient-3)" opacity="0.300000012" transform="translate(1529.739452, 338.199676) rotate(45.000000) translate(-1529.739452, -338.199676) "></path>
                <path d="M351.067392,875.630125 L354.677392,899.107125 L358.287392,922.585188 C359.455392,930.184188 367.929392,933.590563 373.539392,928.716875 L373.539392,928.716875 L390.871392,913.655938 L408.201392,898.595 C413.812392,893.72025 412.351392,884.2215 405.572392,881.496188 L405.572392,881.496188 L384.632392,873.078 L363.691392,864.660875 C362.566392,864.209313 361.435392,864 360.336392,864 L360.336392,864 C354.810392,864 350.093392,869.290188 351.067392,875.630125" id="Fill-6" fill="url(#linearGradient-4)"></path>
                <path d="M213.639128,639.150773 L177.120128,671.208789 L162.939128,683.659365 L162.939128,742.590121 L194.230128,752.801959 L240.659128,767.944738 C255.689128,772.853992 270.460128,759.881931 267.259128,744.60114 L267.259128,744.60114 L257.349128,697.391473 L247.449128,650.181806 C245.337128,640.098121 236.438128,634 227.231128,634 L227.231128,634 C222.487128,634 217.659128,635.620645 213.639128,639.150773" id="Fill-18" fill="url(#linearGradient-5)"></path>
                <path d="M156.029159,768.289465 C155.02666,768.914699 132.977884,789.649566 89.8828316,830.494066 C117.634206,858.471533 145.299555,886.136882 172.878879,913.490113 C181.432844,922.044079 201.467537,942.078771 232.982955,973.59419 C267.395485,1008.00672 295.444054,1036.05529 317.128662,1057.7399 C359.429801,1071.55854 394.736286,1037.93957 385.727241,994.926977 L357.83607,862.040507 L329.973045,729.154036 C324.028933,700.77033 298.983169,683.605249 273.070555,683.605249 C259.718818,683.605249 246.130668,688.167065 234.816591,698.103721 L156.029159,768.289465 Z" id="Fill-18" fill="url(#linearGradient-6)" opacity="0.5" transform="translate(238.512816, 872.246716) rotate(45.000000) translate(-238.512816, -872.246716) "></path>
                <path d="M1602.08763,508.0001 C1600.61763,507.8601 1599.13763,507.3501 1597.77763,506.3901 L1580.71763,494.2601 L1563.64763,482.1201 C1558.11763,478.2001 1558.91763,469.7601 1565.07763,466.9401 L1584.11763,458.2201 L1602.08763,450.0001 L1602.08763,508.0001 Z" id="Fill-1" fill="url(#linearGradient-7)"></path>
                <path d="M1081.31913,1095 L1082.02913,1003.51701 C1082.25813,954.452878 1132.17813,924.045282 1171.87813,948.796147 L1294.52913,1025.2474 L1415.55563,1095 C1416.24681,1095.43404 1304.83465,1095.43404 1081.31913,1095 Z" id="Stroke-23" stroke="#C0C0C0" opacity="0.600000024"></path>
                <path d="M452.459128,0 L470.579128,12.25 C512.949128,40.89 508.419128,104.65 462.439128,127.02 L320.379128,196.13 L178.329128,265.24 C173.259128,267.71 168.099128,269.47 162.939128,270.58" id="Stroke-1" stroke="#C0C0C0" opacity="0.400000006"></path>
                <path d="M357.949128,875.03175 L361.559128,898.50875 L365.169128,921.986813 C366.337128,929.585813 374.811128,932.992188 380.421128,928.1185 L380.421128,928.1185 L397.753128,913.057563 L415.083128,897.996625 C420.694128,893.121875 419.233128,883.623125 412.454128,880.897813 L412.454128,880.897813 L391.514128,872.479625 L370.573128,864.0625 C369.448128,863.610938 368.317128,863.401625 367.218128,863.401625 L367.218128,863.401625 C361.692128,863.401625 356.975128,868.691813 357.949128,875.03175" id="Clip-7"></path>
            </g>
        </g>
    </g>
</svg>