<?xml version="1.0" encoding="UTF-8"?>
<svg width="338px" height="1090px" viewBox="0 0 338 1090" version="1.1" xmlns="http://www.w3.org/2000/svg" xmlns:xlink="http://www.w3.org/1999/xlink">
    <!-- Generator: Sketch 60 (88103) - https://sketch.com -->
    <title>greybg_left</title>
    <desc>Created with Sketch.</desc>
    <defs>
        <linearGradient x1="77.6765784%" y1="-116.267433%" x2="-86.1874746%" y2="224.26004%" id="linearGradient-1">
            <stop stop-color="#EDEDED" offset="0%"></stop>
            <stop stop-color="#C6C6C6" offset="100%"></stop>
        </linearGradient>
        <linearGradient x1="53.2057695%" y1="121.286798%" x2="37.9685388%" y2="-135.223588%" id="linearGradient-2">
            <stop stop-color="#EDEDED" offset="0%"></stop>
            <stop stop-color="#C6C6C6" offset="100%"></stop>
        </linearGradient>
        <linearGradient x1="53.3047528%" y1="121.286798%" x2="37.5970479%" y2="-135.223588%" id="linearGradient-3">
            <stop stop-color="#EDEDED" offset="0%"></stop>
            <stop stop-color="#C6C6C6" offset="100%"></stop>
        </linearGradient>
    </defs>
    <g id="edit_last" stroke="none" stroke-width="1" fill="none" fill-rule="evenodd">
        <g id="3-copy">
            <g id="greybg_left" transform="translate(-163.056296, 0.000000)">
                <g id="Group-4" transform="translate(357.117168, 863.000000)"></g>
                <path d="M351.184561,875.630125 L354.794561,899.107125 L358.404561,922.585188 C359.572561,930.184188 368.046561,933.590563 373.656561,928.716875 L373.656561,928.716875 L390.988561,913.655938 L408.318561,898.595 C413.929561,893.72025 412.468561,884.2215 405.689561,881.496188 L405.689561,881.496188 L384.749561,873.078 L363.808561,864.660875 C362.683561,864.209313 361.552561,864 360.453561,864 L360.453561,864 C354.927561,864 350.210561,869.290188 351.184561,875.630125" id="Fill-6" fill="url(#linearGradient-1)"></path>
                <path d="M213.756296,639.150773 L177.237296,671.208789 L163.056296,683.659365 L163.056296,742.590121 L194.347296,752.801959 L240.776296,767.944738 C255.806296,772.853992 270.577296,759.881931 267.376296,744.60114 L267.376296,744.60114 L257.466296,697.391473 L247.566296,650.181806 C245.454296,640.098121 236.555296,634 227.348296,634 L227.348296,634 C222.604296,634 217.776296,635.620645 213.756296,639.150773" id="Fill-18" fill="url(#linearGradient-2)"></path>
                <path d="M156.146328,768.289465 C155.143828,768.914699 133.095052,789.649566 90,830.494066 C117.751375,858.471533 145.416724,886.136882 172.996047,913.490113 C181.550013,922.044079 201.584705,942.078771 233.100123,973.59419 C267.512653,1008.00672 295.561222,1036.05529 317.24583,1057.7399 C359.546969,1071.55854 394.853454,1037.93957 385.844409,994.926977 L357.953239,862.040507 L330.090213,729.154036 C324.146101,700.77033 299.100337,683.605249 273.187723,683.605249 C259.835986,683.605249 246.247836,688.167065 234.933759,698.103721 L156.146328,768.289465 Z" id="Fill-18" fill="url(#linearGradient-3)" opacity="0.5" transform="translate(238.629984, 872.246716) rotate(45.000000) translate(-238.629984, -872.246716) "></path>
                <path d="M452.576296,0 L470.696296,12.25 C513.066296,40.89 508.536296,104.65 462.556296,127.02 L320.496296,196.13 L178.446296,265.24 C173.376296,267.71 168.216296,269.47 163.056296,270.58" id="Stroke-1" stroke="#C0C0C0" opacity="0.400000006"></path>
                <path d="M358.066296,875.03175 L361.676296,898.50875 L365.286296,921.986813 C366.454296,929.585813 374.928296,932.992188 380.538296,928.1185 L380.538296,928.1185 L397.870296,913.057563 L415.200296,897.996625 C420.811296,893.121875 419.350296,883.623125 412.571296,880.897813 L412.571296,880.897813 L391.631296,872.479625 L370.690296,864.0625 C369.565296,863.610938 368.434296,863.401625 367.335296,863.401625 L367.335296,863.401625 C361.809296,863.401625 357.092296,868.691813 358.066296,875.03175" id="Clip-7"></path>
            </g>
        </g>
    </g>
</svg>