<?xml version="1.0" encoding="utf-8"?>
<!-- Generator: Adobe Illustrator 23.0.4, SVG Export Plug-In . SVG Version: 6.00 Build 0)  -->
<svg version="1.1" id="Layer_1" xmlns="http://www.w3.org/2000/svg" xmlns:xlink="http://www.w3.org/1999/xlink" x="0px" y="0px"
	 viewBox="0 0 914.8 796.3" style="enable-background:new 0 0 914.8 796.3;" xml:space="preserve">
<style type="text/css">
	.st0{display:none;}
	.st1{display:inline;}
	.st2{fill:url(#SVGID_1_);}
	.st3{fill:url(#SVGID_2_);}
	.st4{fill:#FAAF3B;}
	.st5{fill:url(#SVGID_3_);}
	.st6{fill:url(#SVGID_4_);}
	.st7{fill:#892AE2;}
	.st8{fill:url(#SVGID_5_);}
	.st9{fill:url(#SVGID_6_);}
	.st10{fill:#290057;}
	.st11{fill:url(#SVGID_7_);}
	.st12{fill:url(#SVGID_8_);}
	.st13{fill:#2D0064;}
	.st14{fill:url(#SVGID_9_);}
	.st15{fill:url(#SVGID_10_);}
	.st16{fill:none;stroke:#892AE2;stroke-linecap:round;stroke-linejoin:round;stroke-miterlimit:10;}
	.st17{fill:#991FC1;}
	.st18{fill:url(#SVGID_11_);}
	.st19{fill:url(#SVGID_12_);}
</style>
<title>ana</title>
<desc>Created with Sketch.</desc>
<g id="edit_last" class="st0">
	<g id="neat_main" transform="translate(-636.000000, -196.000000)" class="st1">
		
			<image style="overflow:visible;enable-background:new    ;" width="806" height="667" id="ana" xlink:href="383E7215E8258D5.png"  transform="matrix(0.9994 0 0 0.9994 -231.573 223.9172)">
		</image>
	</g>
</g>
<linearGradient id="SVGID_1_" gradientUnits="userSpaceOnUse" x1="228.221" y1="300.6331" x2="858.3607" y2="911.421" gradientTransform="matrix(1 0 0 1 0 -226)">
	<stop  offset="0" style="stop-color:#ECBDFF;stop-opacity:0"/>
	<stop  offset="1" style="stop-color:#A950DB"/>
</linearGradient>
<path class="st2" d="M436.1,248.2c8.5,8.4,8.6,22,0.2,30.6c-4.2,4.3-9.8,6.5-15.5,6.5c-5.5,0-10.9-2-15.1-6.1L225.4,99.7
	c-8.5-8.4-8.6-22-0.2-30.6c8.4-8.5,22-8.6,30.6-0.2"/>
<linearGradient id="SVGID_2_" gradientUnits="userSpaceOnUse" x1="1.1157" y1="562.3813" x2="914.6129" y2="562.3813" gradientTransform="matrix(1 0 0 1 0 -226)">
	<stop  offset="4.170312e-02" style="stop-color:#FF9734"/>
	<stop  offset="1" style="stop-color:#FFD10C"/>
</linearGradient>
<path class="st3" d="M914.6,487.8V670L723.5,458.1c-3.2-3.4-7.5-5.5-12.3-5.5H375c-4.1,0-8-1.6-10.9-4.5L126.4,209.2
	c-25.1,25.8-43.9,45.1-43.9,45.1s-3.5,3.3-8.2,1.8c-4.7-1.5-6.4-6.8-6.4-6.8L1.2,14.4c0,0-1-6.7,3.2-10c0,0,3.3-2.8,10-1
	c6.6,1.8,236,59.4,236,59.4s6.5,2.2,6.5,7c0,5-1.5,6.6-2.8,8.1c-0.5,0.5-18.9,19.4-43.5,44.8c-0.2,0.2-0.3,0.5-0.6,0.6L414,330
	c3.1,3.2,7.3,4.9,11.6,4.9h338.9c5.5,0,10.8,2.3,14.5,6.4L914.6,487.8z"/>
<path class="st4" d="M505.4,581.5c-0.6,0-1.2-0.2-1.6-0.7l-74.4-78c-0.9-0.9-0.8-2.4,0.1-3.2c0.9-0.9,2.4-0.8,3.2,0.1l74.4,78
	c0.9,0.9,0.8,2.4-0.1,3.2C506.5,581.3,506,581.5,505.4,581.5z"/>
<path class="st4" d="M897,426.8c-0.6,0-1.2-0.2-1.6-0.7L821,348c-0.9-0.9-0.8-2.4,0.1-3.2c0.9-0.9,2.4-0.8,3.2,0.1l74.4,78
	c0.9,0.9,0.8,2.4-0.1,3.2C898.1,426.7,897.6,426.8,897,426.8z"/>
<linearGradient id="SVGID_3_" gradientUnits="userSpaceOnUse" x1="610.9064" y1="364.4526" x2="473.0257" y2="300.3502" gradientTransform="matrix(1 0 0 1 0 -226)">
	<stop  offset="4.170312e-02" style="stop-color:#FF9734"/>
	<stop  offset="1" style="stop-color:#FFD10C"/>
</linearGradient>
<path class="st5" d="M483.4,91.2c0,0,73.5,39.6,108,48.7l6-4.9l3.4-15.3c0,0-91.8-24.8-117.5-38.5V91.2z"/>
<linearGradient id="SVGID_4_" gradientUnits="userSpaceOnUse" x1="684.2522" y1="444.7298" x2="597.1696" y2="286.2878" gradientTransform="matrix(1 0 0 1 0 -226)">
	<stop  offset="4.170312e-02" style="stop-color:#FF9734"/>
	<stop  offset="1" style="stop-color:#FFD10C"/>
</linearGradient>
<path class="st6" d="M622.2,113.3c0,0,8.9,6.2,12.5,6.2c3.7,0,70.1,11.9,74.4,24.2c2,7.4-12.8,55.6-12.8,55.6l-8-3.7
	c0,0,4-16.2,4-41.4c0,0,4.5-2.8-39.1-8.3c0,0,0.6,11.7,0.6,17.4c0,5.3,3.3,19.9,9.4,27.3c0.9,1.1,1.7,2.3,2.4,3.5
	c1.2,2.4,2.3,5.2,0.1,7.4c-3,3-21.6,19.1-50.1,6.8c-5.8-2.8-22-25.4-24.4-71.9c-0.1-3.1,0.1-6,0.9-9c2.2-7.3,5.9-8.7,5.9-8.7
	s-1.6,9.5,8.6,16.4C606.9,135.3,620.5,129,622.2,113.3z"/>
<polygon class="st7" points="578.3,324.3 581.4,331.5 586,330 582.1,320.2 "/>
<path class="st7" d="M731.1,387.8c0.3,0.3,4.8,8.4,5.2,9c0.5,0.5,4.7-2,4.7-2l-4.2-10L731.1,387.8z"/>
<linearGradient id="SVGID_5_" gradientUnits="userSpaceOnUse" x1="596.9827" y1="332.4763" x2="616.7914" y2="348.288" gradientTransform="matrix(1 0 0 1 0 -226)">
	<stop  offset="4.170325e-02" style="stop-color:#E52A8E"/>
	<stop  offset="1" style="stop-color:#FB5760"/>
</linearGradient>
<path class="st8" d="M597,104c0,0-1.8,23.7,9.9,31.2c0,0,13.9-5.2,15.5-23.2l-8.1-12.8h-12.4L597,104z"/>
<linearGradient id="SVGID_6_" gradientUnits="userSpaceOnUse" x1="577.1506" y1="313.1091" x2="615.2332" y2="313.1091" gradientTransform="matrix(1 0 0 1 0 -226)">
	<stop  offset="4.170337e-02" style="stop-color:#FF6155"/>
	<stop  offset="1" style="stop-color:#FF6155"/>
</linearGradient>
<path class="st9" d="M600.2,66.8c0,0-23.1,7.2-23.1,29.2c0,3.5,1.6,6.9,4.4,8.9c4.5,3.1,12.5,4.7,24.2-2c6.2-3.5,11.1-12.8,9-24.3
	C612.4,66.9,600.2,66.8,600.2,66.8z"/>
<path class="st10" d="M600.8,51.4c0,0-13,0.8-11.5,21c0,0,10.9-6.4,14.8,0c1.2,3.2,0.6,7.8,0,10.7c-0.6,2.8-0.1,4.8,5.5,3.9
	c5.6-0.9,7-1.5,3.2,8s-8.6,7.4-1.4,7.4c7.3,0,14.7-4.4,14.7-11.5c0-3.9-2.7-8.3-3.7-11.8s-0.9-9.4-3.2-13.9
	C616.7,60.6,611.9,50.3,600.8,51.4z"/>
<linearGradient id="SVGID_7_" gradientUnits="userSpaceOnUse" x1="456.1663" y1="304.9999" x2="483.4227" y2="304.9999" gradientTransform="matrix(1 0 0 1 0 -226)">
	<stop  offset="4.170325e-02" style="stop-color:#E52A8E"/>
	<stop  offset="1" style="stop-color:#FB5760"/>
</linearGradient>
<path class="st11" d="M464.3,74.1c0,0-3.4,10.6,2.6,13s8.6,4.1,16.5,4.1v-10c0,0-1.6-7.2-9-8.9c-7.4-1.7-13.2-4.8-13.2-4.8
	s-7.5-2.2-4.3,0.9C460.1,71.6,464.3,74.1,464.3,74.1z"/>
<linearGradient id="SVGID_8_" gradientUnits="userSpaceOnUse" x1="674.2112" y1="433.4021" x2="696.3577" y2="433.4021" gradientTransform="matrix(1 0 0 1 0 -226)">
	<stop  offset="4.170325e-02" style="stop-color:#E52A8E"/>
	<stop  offset="1" style="stop-color:#FB5760"/>
</linearGradient>
<path class="st12" d="M674.9,211.5c0,0,7.2,7.6,11.1,7.6s7-4.1,8-7.6c0.9-3.5,1.8-10.3,2.4-12c0.5-1.7-8-3.7-8-3.7s1.1,1.9-3.5,4.2
	C680.2,202.3,671.7,208.4,674.9,211.5z"/>
<path class="st13" d="M615.7,208.5c0,0-54.4,13.3-66.9,20.1c-6.6,3.4-9.5,6-6.6,14.8c3,8.7,27.8,72.8,35,82.8l8.6-2.8
	c0,0-10.2-58.8-15.9-71.3c0,0,46.6-2.3,64.9-5.8c0,0,20,26.6,27,35.4c7,8.9,17.2,24,25.4,41.7c8.3,17.7,21.8,47.9,42.7,66.3
	c0,0,5.3-0.5,9.1-4.2c0,0-25.4-57.3-28.9-71.3s-14.3-45.3-19-57.5c-4.7-12-24.4-56.7-24.4-56.7L615.7,208.5z"/>
<linearGradient id="SVGID_9_" gradientUnits="userSpaceOnUse" x1="564.2084" y1="561.0669" x2="588.8233" y2="561.0669" gradientTransform="matrix(1 0 0 1 0 -226)">
	<stop  offset="4.170325e-02" style="stop-color:#E52A8E"/>
	<stop  offset="1" style="stop-color:#FB5760"/>
</linearGradient>
<path class="st14" d="M564.6,340.1c0,0-1.4-1.2,1.2-2.2c2.6-0.9,16.2-7.3,16.2-7.3l3.9-0.8c0,0,2.8,2.4,2.8,5.1
	c0,2.7-3.1,4.7-6.7,4.7S569.8,340.7,564.6,340.1z"/>
<linearGradient id="SVGID_10_" gradientUnits="userSpaceOnUse" x1="730.8649" y1="629.0527" x2="757.4106" y2="629.0527" gradientTransform="matrix(1 0 0 1 0 -226)">
	<stop  offset="4.170325e-02" style="stop-color:#E52A8E"/>
	<stop  offset="1" style="stop-color:#FB5760"/>
</linearGradient>
<path class="st15" d="M736.4,394.9c0,0-2.8,5-4.2,6.4s-2.2,3.2,0.6,4.4c2.7,1.2,9.3,3.9,10.8,4.4c1.5,0.6,10.7,3,13.6-0.7
	c1.2-1.2-2.7-1.9-2.7-1.9s-11.7-5.1-13.4-12.7L736.4,394.9z"/>
<path class="st16" d="M599.9,143.4c-0.6,0-1.1-0.2-1.6-0.7c-2.5-2.5-2.6-13-2.6-16h1.1c0,7.8,0.9,13.9,2.3,15.2
	c0.2,0.2,0.9,0.9,2.3-0.3c0.7-0.7,1.4-1.2,2-1.7c1.1-0.8,2.8-1.6,4.3-1.6c1.7,0,3.4,0.6,5.1,1.7c0.2,0.1,0.3,0.2,0.6,0.3
	c0.7,0.5,0.8,0.6,1.8,0.2c12-3.5,12.6-20,12.6-20.2h1.1c0,0.2-0.6,17.6-13.4,21.2c-1.5,0.5-1.9,0.2-2.8-0.5
	c-0.1-0.1-0.3-0.2-0.5-0.3c-1.5-1-3-1.5-4.4-1.6c-1.2,0-2.7,0.8-3.7,1.5c-0.6,0.3-1.1,0.9-1.8,1.5
	C601.4,143,600.6,143.4,599.9,143.4z"/>
<path class="st17" d="M605,144.1c-0.2-1.6,0.9-3.1,2.5-3.1c0,0,0,0,0.1,0c2.7,0,3,1.4,3.4,3.1c0.8,2.8,6.4,30,22,44
	c15.7,14,24.3,24.8,19.7,31.6c-4.7,6.7-18.3-6.2-22-10C627,205.9,610.3,181.4,605,144.1z"/>
<linearGradient id="SVGID_11_" gradientUnits="userSpaceOnUse" x1="160.5749" y1="569.8312" x2="868.1212" y2="1266.4919" gradientTransform="matrix(1 0 0 1 0 -226)">
	<stop  offset="0" style="stop-color:#ECBDFF;stop-opacity:0"/>
	<stop  offset="1" style="stop-color:#A950DB"/>
</linearGradient>
<path class="st18" d="M384.3,596.2c-8.2,0-16.4-3.1-22.7-9.3l-274-269c-12.7-12.5-13-33.1-0.5-45.8c12.5-12.7,33.1-13,45.8-0.5
	l274.1,269c12.7,12.5,13,33.1,0.5,45.8C401,593,392.7,596.2,384.3,596.2z"/>
<linearGradient id="SVGID_12_" gradientUnits="userSpaceOnUse" x1="569.2019" y1="714.3201" x2="1420.6764" y2="1576.6801" gradientTransform="matrix(1 0 0 1 0 -226)">
	<stop  offset="0" style="stop-color:#ECBDFF;stop-opacity:0"/>
	<stop  offset="1" style="stop-color:#A950DB"/>
</linearGradient>
<path class="st19" d="M815.5,766c-8.2,0-16.4-3.1-22.7-9.3l-274-269c-12.7-12.5-13-33.1-0.5-45.8c12.5-12.7,33.1-13,45.8-0.5
	l274.1,269c12.7,12.5,13,33.1,0.5,45.8C832.4,762.8,824,766,815.5,766z"/>
</svg>
