<svg id="Layer_1" data-name="Layer 1" xmlns="http://www.w3.org/2000/svg" viewBox="0 0 50 50"><defs><style>.cls-1{fill:#fff;}.cls-2{fill:none;stroke:#fff;stroke-linecap:round;stroke-linejoin:round;stroke-width:1.5px;}</style></defs><title>ico_sign_up</title><path class="cls-1" d="M25,1.5a8.74,8.74,0,0,1,8.73,8.73v4.6l1.15.28a2.71,2.71,0,0,1,0,5.26l-1.15.28v1.64a8.73,8.73,0,1,1-17.46,0V20.65l-1.15-.28a2.71,2.71,0,0,1,0-5.26l1.15-.28v-4.6A8.74,8.74,0,0,1,25,1.5M25,0A10.24,10.24,0,0,0,14.77,10.23v3.42a4.21,4.21,0,0,0,0,8.18v.46a10.23,10.23,0,0,0,20.46,0v-.46a4.21,4.21,0,0,0,0-8.18V10.23A10.22,10.22,0,0,0,25,0Z"/><path class="cls-2" d="M17.63,29.38h0C5.48,33.17,6.36,42.47,6.36,42.47H24.93"/><path class="cls-2" d="M32.37,29.38h0c12.14,3.79,11.26,13.09,11.26,13.09H40"/><path class="cls-1" d="M32.45,36.45a6,6,0,1,1-6,6,6,6,0,0,1,6-6m0-1.5A7.53,7.53,0,1,0,40,42.47,7.52,7.52,0,0,0,32.45,35Z"/><polyline class="cls-2" points="28.71 42.74 31.4 45.42 36.22 40.6"/></svg>