<svg id="Layer_1" data-name="Layer 1" xmlns="http://www.w3.org/2000/svg" viewBox="0 0 50 50"><defs><style>.cls-1{fill:none;stroke:#fff;stroke-linecap:round;stroke-linejoin:round;stroke-width:1.5px;}</style></defs><title>ico_earn_money</title><rect class="cls-1" x="0.78" y="7.19" width="48.45" height="35.62"/><rect class="cls-1" x="3.73" y="10.05" width="42.45" height="21.13"/><path class="cls-1" d="M3.73,14.76a4.71,4.71,0,0,0,4.71-4.71"/><path class="cls-1" d="M3.73,26.48a4.7,4.7,0,0,1,4.71,4.7"/><path class="cls-1" d="M46.18,14.76a4.71,4.71,0,0,1-4.71-4.71"/><path class="cls-1" d="M46.18,26.48a4.7,4.7,0,0,0-4.71,4.7"/><path class="cls-1" d="M28.77,17.58s0-2.82-3.82-2.82-3.79,2.7-3.79,3,.23,2,3.79,2.83,3.82,2,3.82,3.1S27.46,26.48,25,26.48s-3.84-1.29-3.84-2.71"/><line class="cls-1" x1="24.95" y1="12.69" x2="24.95" y2="28.4"/><line class="cls-1" x1="0.78" y1="34.01" x2="49.22" y2="34.01"/><line class="cls-1" x1="49.22" y1="37.02" x2="0.78" y2="37.02"/><line class="cls-1" x1="49.22" y1="40.04" x2="0.78" y2="40.04"/></svg>