<svg id="Layer_1" data-name="Layer 1" xmlns="http://www.w3.org/2000/svg" viewBox="0 0 50 50"><defs><style>.cls-1{fill:#fff;}.cls-2{fill:none;stroke:#fff;stroke-linecap:round;stroke-linejoin:round;stroke-width:1.5px;}</style></defs><title>ico_promote</title><path class="cls-1" d="M15.71,14.18V29.25H3.58A2.08,2.08,0,0,1,1.5,27.17V16.25a2.08,2.08,0,0,1,2.08-2.07H15.71m1.5-1.5H3.58A3.57,3.57,0,0,0,0,16.25V27.17a3.58,3.58,0,0,0,3.58,3.58H17.21V12.68Z"/><line class="cls-2" x1="13.41" y1="13.43" x2="13.41" y2="29.51"/><polyline class="cls-2" points="31.05 38.1 31.05 21.71 31.05 5.32"/><path class="cls-2" d="M7,30.75s4.39,13,6.45,13.93h5.92L16.56,38.1s-2.12-5.69-.18-8.18c0,0,11.79.19,14.67,8.18l3.29-.86v-31l-3.29-.87c-2.88,8-14.62,8.14-14.62,8.14"/><path class="cls-2" d="M34.34,26.43a4.72,4.72,0,0,0,0-9.43"/><line class="cls-2" x1="43.5" y1="7.99" x2="38.24" y2="12.68"/><line class="cls-2" x1="41.7" y1="16.24" x2="48" y2="13.58"/><line class="cls-2" x1="43.5" y1="35.69" x2="38.24" y2="31.01"/><line class="cls-2" x1="41.7" y1="27.45" x2="48" y2="30.1"/><line class="cls-2" x1="42.65" y1="21.71" x2="49" y2="21.71"/></svg>