<?xml version="1.0" encoding="UTF-8"?>
<svg width="243px" height="141px" viewBox="0 0 243 141" version="1.1" xmlns="http://www.w3.org/2000/svg" xmlns:xlink="http://www.w3.org/1999/xlink">
    <!-- Generator: Sketch 59.1 (86144) - https://sketch.com -->
    <title>Group 8</title>
    <desc>Created with Sketch.</desc>
    <defs>
        <polygon id="path-1" points="0 0 128.01 0 128.01 140.1369 0 140.1369"></polygon>
        <linearGradient x1="50%" y1="0%" x2="50%" y2="100%" id="linearGradient-3">
            <stop stop-color="#00D890" offset="0%"></stop>
            <stop stop-color="#00B057" offset="100%"></stop>
        </linearGradient>
        <polygon id="path-4" points="0 0 33 0 33 36 0 36"></polygon>
        <polygon id="path-6" points="0 0 21 0 21 23 0 23"></polygon>
        <polygon id="path-8" points="0 0 13 0 13 14 0 14"></polygon>
        <polygon id="path-10" points="0 0 15 0 15 16 0 16"></polygon>
        <polygon id="path-12" points="0 0 9 0 9 10 0 10"></polygon>
    </defs>
    <g id="edit_last" stroke="none" stroke-width="1" fill="none" fill-rule="evenodd">
        <g id="neat_why" transform="translate(-1013.000000, -448.000000)">
            <g id="Group-8" transform="translate(1013.000000, 448.000000)">
                <g id="Group-6">
                    <g id="Group-3" transform="translate(57.000000, 0.000000)">
                        <mask id="mask-2" fill="white">
                            <use xlink:href="#path-1"></use>
                        </mask>
                        <g id="Clip-2"></g>
                        <path d="M128.01,68.2569 C128.01,76.8869 123.06,84.9569 115.11,89.3169 L38.49,135.6469 L36.85,136.6469 C33.1,138.9269 28.84,140.1369 24.51,140.1369 C20.23,140.1369 16,138.9569 12.3,136.7269 C4.72,132.1869 0,123.6869 0,114.5569 L0,25.7069 C0,16.5169 5.03,7.9669 13.12,3.3869 C19.84,-0.4231 27.9,-1.0031 35.07,1.5669 L115.51,47.4469 C123.22,51.8569 128.01,59.7769 128.01,68.2569" id="Fill-1" fill="url(#linearGradient-3)" mask="url(#mask-2)"></path>
                    </g>
                    <g id="Group-3" opacity="0.200000003" transform="translate(210.000000, 52.000000)">
                        <mask id="mask-5" fill="white">
                            <use xlink:href="#path-4"></use>
                        </mask>
                        <g id="Clip-2"></g>
                        <path d="M33,17.5346683 C33,19.7516384 31.7239278,21.8247495 29.6744786,22.9447947 L9.92242794,34.846559 L9.49964846,35.1034501 C8.53292712,35.6891618 7.43473166,36 6.31849074,36 C5.21513944,36 4.12467776,35.6968685 3.17084603,35.1240014 C1.21677994,33.9577158 0,31.7741415 0,29.4287259 L0,6.60395228 C0,4.24312314 1.29669557,2.04670429 3.38223576,0.87014309 C5.11460042,-0.108611972 7.19240684,-0.257608806 9.04077806,0.402601302 L29.7775955,12.1887646 C31.7651746,13.3216543 33,15.3562318 33,17.5346683" id="Fill-1" fill="#573F92" mask="url(#mask-5)"></path>
                    </g>
                    <g id="Group-3" opacity="0.100000001" transform="translate(0.000000, 41.000000)">
                        <mask id="mask-7" fill="white">
                            <use xlink:href="#path-6"></use>
                        </mask>
                        <g id="Clip-2"></g>
                        <path d="M21,11.2027047 C21,12.6191023 20.1879541,13.94359 18.8837591,14.6591744 L6.31427232,22.2630794 L6.04523084,22.4272042 C5.43004453,22.8014089 4.73119288,23 4.02085775,23 C3.3187251,23 2.62479494,22.8063327 2.01781111,22.4403342 C0.774314507,21.6952073 0,20.300146 0,18.801686 L0,4.21919173 C0,2.71088423 0.825169909,1.30761663 2.15233185,0.555924752 C3.25474572,-0.0693909824 4.57698617,-0.164583404 5.7532224,0.257217498 L18.949379,7.78726629 C20.214202,8.51105694 21,9.81092587 21,11.2027047" id="Fill-1" fill="#573F92" mask="url(#mask-7)"></path>
                    </g>
                    <g id="Group-3" opacity="0.200000003" transform="translate(21.000000, 88.000000)">
                        <mask id="mask-9" fill="white">
                            <use xlink:href="#path-8"></use>
                        </mask>
                        <g id="Clip-2"></g>
                        <path d="M13,6.81903766 C13,7.68119271 12.4973049,8.48740259 11.6899461,8.92297571 L3.90883525,13.5514396 L3.74228576,13.6513417 C3.36145614,13.8791185 2.92883368,14 2.48910241,14 C2.05444887,14 1.62487306,13.8821155 1.24912116,13.6593339 C0.479337552,13.2057784 0,12.3566106 0,11.4445045 L0,2.56820366 C0,1.65010344 0.510819467,0.795940559 1.33239591,0.33838898 C2.01484259,-0.0422379893 2.83337239,-0.100181202 3.56151863,0.156567173 L11.7305679,4.74007513 C12.5135536,5.18064336 13,5.97186792 13,6.81903766" id="Fill-1" fill="#573F92" mask="url(#mask-9)"></path>
                    </g>
                    <g id="Group-3" opacity="0.300000012" transform="translate(166.000000, 14.000000)">
                        <mask id="mask-11" fill="white">
                            <use xlink:href="#path-10"></use>
                        </mask>
                        <g id="Clip-2"></g>
                        <path d="M15,7.7931859 C15,8.77850595 14.4199672,9.69988867 13.4883993,10.1976865 L4.51019452,15.4873596 L4.31802203,15.6015334 C3.87860323,15.8618497 3.37942348,16 2.87204125,16 C2.37051793,16 1.87485353,15.8652749 1.44129365,15.6106673 C0.55308179,15.0923181 0,14.1218407 0,13.0794337 L0,2.9350899 C0,1.8858325 0.589407078,0.909646353 1.53737989,0.386730262 C2.32481837,-0.0482719878 3.26927584,-0.114492803 4.10944457,0.178933912 L13.5352707,5.41722872 C14.4387157,5.92073527 15,6.82499191 15,7.7931859" id="Fill-1" fill="#573F92" mask="url(#mask-11)"></path>
                    </g>
                    <g id="icon_wj2" opacity="0.85" transform="translate(84.000000, 43.000000)" stroke="#FFFFFF" stroke-linecap="round" stroke-linejoin="round" stroke-width="2">
                        <circle id="Oval" cx="31.74" cy="4.37" r="3.73"></circle>
                        <circle id="Oval" cx="42.96" cy="19.05" r="3.73"></circle>
                        <rect id="Rectangle" x="5.85" y="11.67" width="27.78" height="14.86"></rect>
                        <line x1="8.6" y1="21.87" x2="8.6" y2="16.4" id="Path"></line>
                        <line x1="30.84" y1="21.87" x2="30.84" y2="16.4" id="Path"></line>
                        <line x1="28.89" y1="14.45" x2="10.55" y2="14.45" id="Path"></line>
                        <line x1="28.89" y1="23.82" x2="10.55" y2="23.82" id="Path"></line>
                        <path d="M8.6,16.4000001 C9.68533429,16.4003392 10.5728667,15.5349951 10.6,14.45" id="Path"></path>
                        <path d="M8.6,21.8699999 C9.68533429,21.8696608 10.5728667,22.7350049 10.6,23.82" id="Path"></path>
                        <path d="M28.89,23.82 C28.9171333,22.7350049 29.8046657,21.8696608 30.89,21.8699999" id="Path"></path>
                        <path d="M28.89,14.45 C28.9171333,15.5349951 29.8046657,16.4003392 30.89,16.4000001" id="Path"></path>
                        <ellipse id="Oval" cx="19.74" cy="19.1" rx="3.91" ry="4.52"></ellipse>
                        <circle id="Oval" cx="12.28" cy="19.14" r="1"></circle>
                        <circle id="Oval" cx="27.12" cy="19.14" r="1"></circle>
                        <path d="M9.34,53.360008 L3.93,53.360008 C2.68469894,53.3632075 1.64932156,52.4020977 1.56,51.16 L1.45,50.45 C0.437547327,44.4061264 0.102141919,38.2682075 0.45,32.15 L0.45,32.15 C0.45,31.0454305 1.3454305,30.15 2.45,30.15 L9.29,30.15 C10.3945695,30.15 11.29,31.0454305 11.29,32.15 L11.29,51.32 C11.3123598,52.4208391 10.4407277,53.3327004 9.34,53.360008 L9.34,53.360008 Z" id="Path"></path>
                        <path d="M11.37,33.9 C12.3251772,33.9933212 13.2888045,33.8561501 14.18,33.5 C15.86,32.89 20.29,29.4 28.89,32.82 C30.1815752,33.3782538 31.6262471,33.4736234 32.98,33.09 C34.52,32.68 37.11,31.24 39.86,32.09 C40.6015571,32.3172921 41.2056482,32.8591789 41.5118725,33.5717764 C41.8180968,34.2843739 41.79547,35.0955801 41.45,35.79 C40.6017969,37.2063244 39.2229698,38.2251444 37.62,38.62 C35.328968,39.3505119 32.952044,39.7774841 30.55,39.89 C30.1149648,39.8957514 29.6936698,40.0432047 29.35,40.31 C28.2036521,41.2732093 26.8242094,41.9180988 25.35,42.18" id="Path"></path>
                        <path d="M37.69,31.86 C37.69,31.86 43.4,23.52 46.38,27.47 C46.5127272,27.6388136 46.6174008,27.8279013 46.69,28.03" id="Path"></path>
                        <path d="M41.13,33 C41.13,33 49,23.41 50.75,29.32 C50.8245371,29.8339784 50.8245371,30.3560216 50.75,30.87" id="Path"></path>
                        <path d="M33.63,39.62 L39.84,39.47 C39.84,39.47 46.49,31.38 48.16,30.88 C48.9915717,30.5488149 49.9184283,30.5488149 50.75,30.88 C51.6591836,31.497733 51.9270173,32.7183524 51.36,33.66 C50.53,35.12 44.61,43.04 42.92,45.21 C42.6248072,45.6007079 42.2106994,45.8849684 41.74,46.02 L33.29,48.27 L25.72,50.27 C24.4545385,50.6497242 23.1054615,50.6497242 21.84,50.27 C19.2789512,49.5050577 16.8105546,48.4586722 14.48,47.15 L11.37,47.15" id="Path"></path>
                    </g>
                    <g id="Group-3" opacity="0.100000001" transform="translate(150.000000, 118.000000)">
                        <mask id="mask-13" fill="white">
                            <use xlink:href="#path-12"></use>
                        </mask>
                        <g id="Clip-2"></g>
                        <path d="M9,4.87074118 C9,5.48656622 8.65198031,6.06243042 8.09303961,6.37355408 L2.70611671,9.67959972 L2.59081322,9.75095836 C2.32716194,9.91365605 2.02765409,10 1.72322475,10 C1.42231076,10 1.12491212,9.91579681 0.864776189,9.75666705 C0.331849074,9.43269884 0,8.82615042 0,8.17464607 L0,1.83443119 C0,1.17864532 0.353644247,0.568528971 0.922427935,0.241706414 C1.39489102,-0.0301699923 1.9615655,-0.0715580017 2.46566674,0.111833695 L8.12116241,3.38576795 C8.66322944,3.70045954 9,4.26561994 9,4.87074118" id="Fill-1" fill="#573F92" mask="url(#mask-13)"></path>
                    </g>
                </g>
            </g>
        </g>
    </g>
</svg>