<?xml version="1.0" encoding="UTF-8"?>
<svg width="242px" height="141px" viewBox="0 0 242 141" version="1.1" xmlns="http://www.w3.org/2000/svg" xmlns:xlink="http://www.w3.org/1999/xlink">
    <!-- Generator: Sketch 59.1 (86144) - https://sketch.com -->
    <title>Group 2</title>
    <desc>Created with Sketch.</desc>
    <defs>
        <polygon id="path-1" points="0 0 128.01 0 128.01 140.1369 0 140.1369"></polygon>
        <linearGradient x1="50%" y1="0%" x2="50%" y2="100%" id="linearGradient-3">
            <stop stop-color="#9074C4" offset="0%"></stop>
            <stop stop-color="#573F92" offset="100%"></stop>
        </linearGradient>
        <polygon id="path-4" points="0 0 33 0 33 36 0 36"></polygon>
        <polygon id="path-6" points="0 0 21 0 21 23 0 23"></polygon>
        <polygon id="path-8" points="0 0 13 0 13 14 0 14"></polygon>
        <polygon id="path-10" points="0 0 20 0 20 21 0 21"></polygon>
        <polygon id="path-12" points="0 0 9 0 9 10 0 10"></polygon>
    </defs>
    <g id="edit_last" stroke="none" stroke-width="1" fill="none" fill-rule="evenodd">
        <g id="neat_why" transform="translate(-204.000000, -448.000000)">
            <g id="Group-2" transform="translate(204.000000, 448.000000)">
                <g id="Group-3" transform="translate(57.000000, 0.000000)">
                    <mask id="mask-2" fill="white">
                        <use xlink:href="#path-1"></use>
                    </mask>
                    <g id="Clip-2"></g>
                    <path d="M115.11,89.3169 L38.49,135.6469 L36.85,136.6469 C33.1,138.9269 28.84,140.1369 24.51,140.1369 C20.23,140.1369 16,138.9569 12.3,136.7269 C4.72,132.1869 0,123.6869 0,114.5569 L0,25.7069 C0,16.5169 5.03,7.9669 13.12,3.3869 C19.84,-0.4231 27.9,-1.0031 35.07,1.5669 L115.51,47.4469 C123.22,51.8569 128.01,59.7769 128.01,68.2569 C128.01,76.8869 123.06,84.9569 115.11,89.3169 Z" id="Fill-1" fill="url(#linearGradient-3)" mask="url(#mask-2)"></path>
                </g>
                <g id="Group-3" opacity="0.200000003" transform="translate(17.000000, 31.000000)">
                    <mask id="mask-5" fill="white">
                        <use xlink:href="#path-4"></use>
                    </mask>
                    <g id="Clip-2"></g>
                    <path d="M33,17.5346683 C33,19.7516384 31.7239278,21.8247495 29.6744786,22.9447947 L9.92242794,34.846559 L9.49964846,35.1034501 C8.53292712,35.6891618 7.43473166,36 6.31849074,36 C5.21513944,36 4.12467776,35.6968685 3.17084603,35.1240014 C1.21677994,33.9577158 0,31.7741415 0,29.4287259 L0,6.60395228 C0,4.24312314 1.29669557,2.04670429 3.38223576,0.87014309 C5.11460042,-0.108611972 7.19240684,-0.257608806 9.04077806,0.402601302 L29.7775955,12.1887646 C31.7651746,13.3216543 33,15.3562318 33,17.5346683" id="Fill-1" fill="#573F92" mask="url(#mask-5)"></path>
                </g>
                <g id="Group-3" opacity="0.100000001" transform="translate(0.000000, 91.000000)">
                    <mask id="mask-7" fill="white">
                        <use xlink:href="#path-6"></use>
                    </mask>
                    <g id="Clip-2"></g>
                    <path d="M21,11.2027047 C21,12.6191023 20.1879541,13.94359 18.8837591,14.6591744 L6.31427232,22.2630794 L6.04523084,22.4272042 C5.43004453,22.8014089 4.73119288,23 4.02085775,23 C3.3187251,23 2.62479494,22.8063327 2.01781111,22.4403342 C0.774314507,21.6952073 0,20.300146 0,18.801686 L0,4.21919173 C0,2.71088423 0.825169909,1.30761663 2.15233185,0.555924752 C3.25474572,-0.0693909824 4.57698617,-0.164583404 5.7532224,0.257217498 L18.949379,7.78726629 C20.214202,8.51105694 21,9.81092587 21,11.2027047" id="Fill-1" fill="#573F92" mask="url(#mask-7)"></path>
                </g>
                <g id="Group-3" opacity="0.100000001" transform="translate(229.000000, 85.000000)">
                    <mask id="mask-9" fill="white">
                        <use xlink:href="#path-8"></use>
                    </mask>
                    <g id="Clip-2"></g>
                    <path d="M13,6.81903766 C13,7.68119271 12.4973049,8.48740259 11.6899461,8.92297571 L3.90883525,13.5514396 L3.74228576,13.6513417 C3.36145614,13.8791185 2.92883368,14 2.48910241,14 C2.05444887,14 1.62487306,13.8821155 1.24912116,13.6593339 C0.479337552,13.2057784 0,12.3566106 0,11.4445045 L0,2.56820366 C0,1.65010344 0.510819467,0.795940559 1.33239591,0.33838898 C2.01484259,-0.0422379893 2.83337239,-0.100181202 3.56151863,0.156567173 L11.7305679,4.74007513 C12.5135536,5.18064336 13,5.97186792 13,6.81903766" id="Fill-1" fill="#573F92" mask="url(#mask-9)"></path>
                </g>
                <g id="Group-3" opacity="0.300000012" transform="translate(171.000000, 112.000000)">
                    <mask id="mask-11" fill="white">
                        <use xlink:href="#path-10"></use>
                    </mask>
                    <g id="Clip-2"></g>
                    <path d="M20,10.2285565 C20,11.5217891 19.2266229,12.7311039 17.9845325,13.3844636 L6.01359269,20.3271594 L5.75736271,20.4770126 C5.17147098,20.8186777 4.50589798,21 3.82938833,21 C3.16069057,21 2.4998047,20.8231733 1.92172487,20.4890008 C0.737442387,19.8086676 0,18.5349159 0,17.1667567 L0,3.85230549 C0,2.47515516 0.785876103,1.19391084 2.04983986,0.507583469 C3.09975783,-0.0633569839 4.35903445,-0.150271804 5.47925943,0.234850759 L18.0470276,7.1101127 C19.251621,7.77096504 20,8.95780188 20,10.2285565" id="Fill-1" fill="#573F92" mask="url(#mask-11)"></path>
                </g>
                <g id="Group-3" opacity="0.200000003" transform="translate(181.000000, 14.000000)">
                    <mask id="mask-13" fill="white">
                        <use xlink:href="#path-12"></use>
                    </mask>
                    <g id="Clip-2"></g>
                    <path d="M9,4.87074118 C9,5.48656622 8.65198031,6.06243042 8.09303961,6.37355408 L2.70611671,9.67959972 L2.59081322,9.75095836 C2.32716194,9.91365605 2.02765409,10 1.72322475,10 C1.42231076,10 1.12491212,9.91579681 0.864776189,9.75666705 C0.331849074,9.43269884 0,8.82615042 0,8.17464607 L0,1.83443119 C0,1.17864532 0.353644247,0.568528971 0.922427935,0.241706414 C1.39489102,-0.0301699923 1.9615655,-0.0715580017 2.46566674,0.111833695 L8.12116241,3.38576795 C8.66322944,3.70045954 9,4.26561994 9,4.87074118" id="Fill-1" fill="#573F92" mask="url(#mask-13)"></path>
                </g>
                <g id="icon_wj1" opacity="0.85" transform="translate(83.000000, 47.000000)" stroke="#FFFFFF" stroke-linecap="round" stroke-linejoin="round" stroke-width="2">
                    <line x1="0.2" y1="1.86" x2="51.95" y2="1.86" id="Path"></line>
                    <line x1="26.08" y1="0.26" x2="26.08" y2="1.86" id="Path"></line>
                    <rect id="Rectangle" x="2.01" y="1.86" width="48.13" height="35.06"></rect>
                    <line x1="2.01" y1="5.65" x2="50.14" y2="5.65" id="Path"></line>
                    <line x1="7.33" y1="31.39" x2="44.83" y2="31.39" id="Path"></line>
                    <rect id="Rectangle" x="9.5" y="24.28" width="5.46" height="7.11"></rect>
                    <rect id="Rectangle" x="18.78" y="16.72" width="5.46" height="14.68"></rect>
                    <rect id="Rectangle" x="37.15" y="11.08" width="5.46" height="20.31"></rect>
                    <rect id="Rectangle" x="28" y="22.23" width="5.46" height="9.17"></rect>
                    <line x1="11.34" y1="51.74" x2="18.78" y2="36.92" id="Path"></line>
                    <line x1="11.34" y1="51.74" x2="18.78" y2="36.92" id="Path"></line>
                    <line x1="40.87" y1="51.74" x2="33.43" y2="36.92" id="Path"></line>
                    <line x1="26.08" y1="49.89" x2="26.08" y2="36.92" id="Path"></line>
                </g>
            </g>
        </g>
    </g>
</svg>