<?xml version="1.0" encoding="UTF-8"?>
<svg width="215px" height="32px" viewBox="0 0 215 32" version="1.1" xmlns="http://www.w3.org/2000/svg" xmlns:xlink="http://www.w3.org/1999/xlink">
    <!-- Generator: Sketch 59.1 (86144) - https://sketch.com -->
    <title>NeatAffiliates_purple</title>
    <desc>Created with Sketch.</desc>
    <defs>
        <polygon id="path-1" points="4e-05 0.251333333 7.94524 0.251333333 7.94524 12.9124667 4e-05 12.9124667"></polygon>
        <polygon id="path-3" points="0 0.028526087 8.9364 0.028526087 8.9364 26.9999609 0 26.9999609"></polygon>
        <polygon id="path-5" points="0 32 216 32 216 1 0 1"></polygon>
    </defs>
    <g id="edit_last" stroke="none" stroke-width="1" fill="none" fill-rule="evenodd">
        <g id="neat_main" transform="translate(-45.000000, -45.000000)">
            <g id="NeatAffiliates_purple" transform="translate(45.000000, 45.000000)">
                <path d="M8.9364,5.02852609 L8.720025,30.9837435 L8.34915,31.2091348 C7.499025,31.7268304 6.53265,31.9999609 5.55315,31.9999609 C4.5819,31.9999609 3.625275,31.7319174 2.785275,31.2275261 C1.0689,30.1983957 -0.000225,28.2735696 -0.000225,26.2055261 L-0.000225,26.2055261 L-0.000225,19.6938304 L8.9364,5.02852609 Z M26.1699326,11 C27.9157379,12.0004231 29,13.7944653 29,15.7150536 C29,17.6703581 27.8803123,19.49837 26.0779853,20.487221 L26.0779853,20.487221 L16,26 Z M13.1862074,4 L23,9.60403414 L13,25 L13.1862074,4 Z M2.97204,1.01825455 C4.49524,0.154739394 6.32164,0.0247393939 7.94524,0.6058 L7.94524,0.6058 L4e-05,12.9124667 L4e-05,6.07486061 C4e-05,3.99328485 1.14004,2.05510303 2.97204,1.01825455 Z" id="Combined-Shape" fill="#FFFFFF"></path>
                <g id="Group-7">
                    <mask id="mask-2" fill="white">
                        <use xlink:href="#path-1"></use>
                    </mask>
                    <g id="Clip-6"></g>
                </g>
                <g id="Group-10" transform="translate(0.000000, 5.000000)">
                    <mask id="mask-4" fill="white">
                        <use xlink:href="#path-3"></use>
                    </mask>
                    <g id="Clip-9"></g>
                </g>
                <polygon id="Fill-11" fill="#FFFFFF" points="56.1815406 4 59 4 59 25 56.7272795 25 45.8180622 9.3100646 45.8180622 25 43 25 43 4 45.2731177 4 56.1815406 19.6600506"></polygon>
                <path d="M63.6125433,16.4735858 L73.4166987,16.4735858 C72.9765294,13.7643907 71.0388611,12.3384002 68.6906503,12.3384002 C65.9611389,12.3384002 64.0527126,13.963992 63.6125433,16.4735858 L63.6125433,16.4735858 Z M63.6125433,18.6407924 C64.1111966,21.1787939 66.1369758,22.6619736 68.9257407,22.6619736 C70.8630242,22.6619736 72.2720277,21.9771991 73.1527511,20.57999 L75.3247403,21.7775978 C73.8864948,23.9163967 71.7437476,25 68.8668719,25 C66.5475183,25 64.6398615,24.2868178 63.1719892,22.8896088 C61.7341285,21.463992 61,19.6675804 61,17.5 C61,15.3615749 61.7045017,13.5647894 63.1427472,12.1387989 C64.5809927,10.7128084 66.4305502,10 68.6906503,10 C70.8333975,10 72.5948442,10.7419636 73.9453636,12.2243957 C75.3247403,13.6787939 76,15.4467979 76,17.5287815 C76,17.8988288 75.970758,18.2699975 75.9118892,18.6407924 L63.6125433,18.6407924 Z" id="Fill-13" fill="#FFFFFF"></path>
                <path d="M89.8261559,21.1503862 C90.8545518,20.1523798 91.3687497,18.954772 91.3687497,17.5 C91.3687497,16.0459756 90.8545518,14.8483678 89.8261559,13.878769 C88.79776,12.8803887 87.5271322,12.3955893 85.9849348,12.3955893 C84.4724714,12.3955893 83.20224,12.8803887 82.1738441,13.878769 C81.1454482,14.8483678 80.6312503,16.0459756 80.6312503,17.5 C80.6312503,18.954772 81.1454482,20.1523798 82.1738441,21.1503862 C83.20224,22.119985 84.4724714,22.6051582 85.9849348,22.6051582 C87.5271322,22.6051582 88.79776,22.119985 89.8261559,21.1503862 L89.8261559,21.1503862 Z M91.3687497,10.3711687 L94,10.3711687 L94,24.6295789 L91.3687497,24.6295789 L91.3687497,22.1768004 C90.0679915,24.0591827 88.1626443,25 85.6519154,25 C83.534863,25 81.7199068,24.2871916 80.2379702,22.8327934 C78.7560335,21.3783952 78,19.5819836 78,17.5 C78,15.4183902 78.7560335,13.6503862 80.2379702,12.195988 C81.7199068,10.7419636 83.534863,10 85.6519154,10 C88.1626443,10 90.0679915,10.9415649 91.3687497,12.8235734 L91.3687497,10.3711687 Z" id="Fill-15" fill="#FFFFFF"></path>
                <path d="M105,12.600182 L101.247935,12.600182 L101.247935,20.5853632 C101.247935,22.8544292 102.489009,22.6771524 105,22.5597403 L105,24.8577731 C100.711345,25.447151 98.7931545,24.2394285 98.7931545,20.5853632 L98.7931545,12.600182 L96,12.600182 L96,10.1248723 L98.7931545,10.1248723 L98.7931545,6.7658822 L101.247935,6 L101.247935,10.1248723 L105,10.1248723 L105,12.600182 Z" id="Fill-17" fill="#FFFFFF"></path>
                <path d="M112.396914,17.6801798 L119.602709,17.6801798 L115.985324,7.3301938 L112.396914,17.6801798 Z M122.157419,25 L120.521637,20.2903848 L111.478363,20.2903848 L109.841828,25 L107,25 L114.492537,4 L117.507087,4 L125,25 L122.157419,25 Z" id="Fill-19" fill="#FFFFFF"></path>
                <path d="M146,10.4774112 L146,25 L143.433763,25 L143.433763,12.9173858 L137.977706,12.9173858 L137.977706,25 L135.411469,25 L135.411469,12.9173858 L129.925644,12.9173858 L129.925644,25 L127.359794,25 L127.359794,12.9173858 L125,12.9173858 L125,10.4774112 L127.359794,10.4774112 L127.359794,10.0414975 C127.359794,6.12055838 129.660052,4.02931472 133.818686,4.29086294 L133.818686,6.73083756 C131.223454,6.52715736 129.925644,7.63083756 129.925644,10.0414975 L129.925644,10.4774112 L135.411469,10.4774112 L135.411469,9.75101523 C135.411469,5.91687817 137.56482,4 141.840979,4 C142.696521,4 143.699742,4.11649746 144.879253,4.37804569 L144.879253,6.67258883 C143.728737,6.52715736 142.696521,6.43997462 141.840979,6.43997462 C139.157216,6.43997462 137.977706,7.31142132 137.977706,9.75101523 L137.977706,10.4774112 L146,10.4774112 Z" id="Fill-21" fill="#FFFFFF"></path>
                <mask id="mask-6" fill="white">
                    <use xlink:href="#path-5"></use>
                </mask>
                <g id="Clip-24"></g>
                <polygon id="Fill-23" fill="#FFFFFF" mask="url(#mask-6)" points="149 25 152 25 152 4 149 4"></polygon>
                <path d="M155.385081,25 L157.615255,25 L157.615255,10.1692894 L155.385081,10.1692894 L155.385081,25 Z M155,5.7499352 C155,4.80090347 155.667003,4 156.512769,4 C157.333333,4 158,4.80090347 158,5.7499352 C158,6.69896693 157.333333,7.46993372 156.512769,7.46993372 C155.667003,7.46993372 155,6.69896693 155,5.7499352 L155,5.7499352 Z" id="Fill-25" fill="#FFFFFF" mask="url(#mask-6)"></path>
                <path d="M171.826449,21.1503862 C172.85487,20.1523798 173.369081,18.954772 173.369081,17.5 C173.369081,16.0459756 172.85487,14.8483678 171.826449,13.878769 C170.797631,12.8803887 169.526972,12.3955893 167.985133,12.3955893 C166.472235,12.3955893 165.202369,12.8803887 164.173551,13.878769 C163.145526,14.8483678 162.631316,16.0459756 162.631316,17.5 C162.631316,18.954772 163.145526,20.1523798 164.173551,21.1503862 C165.202369,22.119985 166.472235,22.6051582 167.985133,22.6051582 C169.526972,22.6051582 170.797631,22.119985 171.826449,21.1503862 L171.826449,21.1503862 Z M173.369081,10.3711687 L176,10.3711687 L176,24.6295789 L173.369081,24.6295789 L173.369081,22.1768004 C172.067894,24.0591827 170.162896,25 167.652105,25 C165.535,25 163.719999,24.2871916 162.237629,22.8327934 C160.756052,21.3783952 160,19.5819836 160,17.5 C160,15.4183902 160.756052,13.6503862 162.237629,12.195988 C163.719999,10.7419636 165.535,10 167.652105,10 C170.162896,10 172.067894,10.9415649 173.369081,12.8235734 L173.369081,10.3711687 Z" id="Fill-26" fill="#FFFFFF" mask="url(#mask-6)"></path>
                <path d="M187,12.600182 L183.24772,12.600182 L183.24772,20.5853632 C183.24772,22.8544292 184.488742,22.6771524 187,22.5597403 L187,24.8577731 C182.711151,25.447151 180.793409,24.2394285 180.793409,20.5853632 L180.793409,12.600182 L178,12.600182 L178,10.1248723 L180.793409,10.1248723 L180.793409,6.7658822 L183.24772,6 L183.24772,10.1248723 L187,10.1248723 L187,12.600182 Z" id="Fill-27" fill="#FFFFFF" mask="url(#mask-6)"></path>
                <path d="M190.612543,16.4735858 L200.416699,16.4735858 C199.976529,13.7643907 198.039246,12.3384002 195.69065,12.3384002 C192.961139,12.3384002 191.053097,13.963992 190.612543,16.4735858 L190.612543,16.4735858 Z M190.612543,18.6407924 C191.111581,21.1787939 193.136976,22.6619736 195.925741,22.6619736 C197.863409,22.6619736 199.272412,21.9771991 200.152751,20.57999 L202.32474,21.7775978 C200.886495,23.9163967 198.743748,25 195.866872,25 C193.547903,25 191.639861,24.2868178 190.171989,22.8896088 C188.734129,21.463992 188,19.6675804 188,17.5 C188,15.3615749 188.704502,13.5647894 190.142747,12.1387989 C191.581377,10.7128084 193.43055,10 195.69065,10 C197.833782,10 199.594844,10.7419636 200.945364,12.2243957 C202.32474,13.6787939 203,15.4467979 203,17.5287815 C203,17.8988288 202.970758,18.2699975 202.912274,18.6407924 L190.612543,18.6407924 Z" id="Fill-28" fill="#FFFFFF" mask="url(#mask-6)"></path>
                <path d="M214.999792,20.7224022 C214.999792,22.0056068 214.486949,23.0611762 213.489651,23.8307999 C212.492352,24.6007974 211.238072,25 209.670782,25 C206.907107,25 204.826226,23.6883877 204,21.6635933 L206.137282,20.4372041 C206.59335,21.8060055 207.932793,22.6619736 209.670782,22.6619736 C211.29522,22.6619736 212.492352,22.0624221 212.492352,20.7224022 C212.492352,19.610765 211.238072,18.9828059 209.670782,18.612011 C207.41995,18.0132071 204.512843,17.271991 204.512843,14.2491901 C204.512843,13.0231747 204.997672,11.9963867 205.937822,11.1979816 C206.907107,10.3992026 208.103491,10 209.556858,10 C211.865212,10 213.774273,11.112011 214.686409,12.9659855 L212.605902,14.1351856 C212.093059,12.9091702 211.067373,12.3103663 209.556858,12.3103663 C208.16064,12.3103663 207.020657,12.9943932 207.020657,14.2207825 C207.020657,15.3327934 208.274564,15.9315973 209.841854,16.3595814 C212.064672,16.844007 215.028553,17.6711936 214.999792,20.7224022 Z" id="Fill-29" fill="#FFFFFF" mask="url(#mask-6)"></path>
            </g>
        </g>
    </g>
</svg>