<?xml version="1.0" encoding="UTF-8"?>
<svg width="48px" height="48px" viewBox="0 0 48 48" version="1.1" xmlns="http://www.w3.org/2000/svg" xmlns:xlink="http://www.w3.org/1999/xlink">
    <!-- Generator: Sketch 60 (88103) - https://sketch.com -->
    <title>mail</title>
    <desc>Created with Sketch.</desc>
    <g id="edit_last" stroke="none" stroke-width="1" fill="none" fill-rule="evenodd">
        <g id="3" transform="translate(-546.000000, -656.000000)" fill="#3A2A49" fill-rule="nonzero">
            <g id="mail" transform="translate(546.000000, 656.000000)">
                <path d="M24.09375,19.6875 C21.7674375,19.6875 19.875,21.5799375 19.875,23.90625 C19.875,26.2325625 21.7674375,28.125 24.09375,28.125 C26.4200625,28.125 28.3125,26.2325625 28.3125,23.90625 C28.3125,21.5799375 26.4200625,19.6875 24.09375,19.6875 Z" id="Path"></path>
                <path d="M23.90625,0 C10.7240625,0 0,10.7240625 0,23.90625 C0,37.0884375 10.7240625,48 23.90625,48 C37.0884375,48 48,37.0884375 48,23.90625 C48,10.7240625 37.0884375,0 23.90625,0 Z M33.9375,30.9375 C32.0369063,30.9375 30.36075,29.9849063 29.3421562,28.537875 C28.0528125,29.9972813 26.1894375,30.9375 24.09375,30.9375 C20.2169063,30.9375 17.0625,27.7830937 17.0625,23.90625 C17.0625,20.0294063 20.2169063,16.875 24.09375,16.875 C25.682625,16.875 27.1336875,17.4248438 28.3125,18.3171563 L28.3125,18.28125 C28.3125,17.5039687 28.9414687,16.875 29.71875,16.875 C30.4960313,16.875 31.125,17.5039687 31.125,18.28125 C31.125,21.40875 31.125,22.1835938 31.125,25.3125 C31.125,26.8629375 32.3870625,28.125 33.9375,28.125 C35.4879375,28.125 36.75,26.8629375 36.75,25.3125 C36.75,15.9008437 30.522,11.25 24.09375,11.25 C17.1147188,11.25 11.4375,16.9272188 11.4375,23.90625 C11.4375,30.8852812 17.1147188,36.5625 24.09375,36.5625 C26.90625,36.5625 29.5663125,35.6616563 31.7869688,33.9559687 C33.2702813,32.8236562 34.9688438,35.0589375 33.5008125,36.1861875 C30.7830937,38.2722188 27.5310938,39.375 24.09375,39.375 C15.5642813,39.375 8.625,32.4357187 8.625,23.90625 C8.625,15.3767813 15.5642813,8.4375 24.09375,8.4375 C31.8653437,8.4375 39.5625,14.1689062 39.5625,25.3125 C39.5625,28.4147813 37.0397813,30.9375 33.9375,30.9375 Z" id="Shape"></path>
            </g>
        </g>
    </g>
</svg>