<?xml version="1.0" encoding="UTF-8"?>
<svg width="18px" height="16px" viewBox="0 0 18 16" version="1.1" xmlns="http://www.w3.org/2000/svg" xmlns:xlink="http://www.w3.org/1999/xlink">
    <!-- Generator: Sketch 59.1 (86144) - https://sketch.com -->
    <title>Group 9</title>
    <desc>Created with Sketch.</desc>
    <g id="edit_last" stroke="none" stroke-width="1" fill="none" fill-rule="evenodd">
        <g id="neat_mobil" transform="translate(-330.000000, -29.000000)" fill="#FFFFFF">
            <g id="Group-9" transform="translate(339.000000, 37.000000) scale(-1, -1) translate(-339.000000, -37.000000) translate(330.000000, 29.000000)">
                <path d="M9.71629615,9.04347826 L1.03856538,9.04347826 C0.464988462,9.04347826 0.000103846154,8.57634783 0.000103846154,8 C0.000103846154,7.42365217 0.464988462,6.95652174 1.03856538,6.95652174 L9.71629615,6.95652174 C10.2898731,6.95652174 10.7547577,7.42365217 10.7547577,8 C10.7547577,8.57634783 10.2898731,9.04347826 9.71629615,9.04347826" id="Fill-4"></path>
                <path d="M16.6393731,16 L1.03856538,16 C0.464988462,16 0.000103846154,15.5328696 0.000103846154,14.9565217 C0.000103846154,14.3801739 0.464988462,13.9130435 1.03856538,13.9130435 L16.6393731,13.9130435 C17.21295,13.9130435 17.6778346,14.3801739 17.6778346,14.9565217 C17.6778346,15.5328696 17.21295,16 16.6393731,16" id="Fill-6"></path>
                <path d="M16.6393731,2.08695652 L1.03856538,2.08695652 C0.464988462,2.08695652 0.000103846154,1.61982609 0.000103846154,1.04347826 C0.000103846154,0.467130435 0.464988462,0 1.03856538,0 L16.6393731,0 C17.21295,0 17.6778346,0.467130435 17.6778346,1.04347826 C17.6778346,1.61982609 17.21295,2.08695652 16.6393731,2.08695652" id="Fill-1"></path>
            </g>
        </g>
    </g>
</svg>