<?xml version="1.0" encoding="UTF-8"?>
<svg width="15px" height="15px" viewBox="0 0 15 15" version="1.1" xmlns="http://www.w3.org/2000/svg" xmlns:xlink="http://www.w3.org/1999/xlink">
    <!-- Generator: Sketch 59.1 (86144) - https://sketch.com -->
    <title>Combined Shape</title>
    <desc>Created with Sketch.</desc>
    <g id="edit_last" stroke="none" stroke-width="1" fill="none" fill-rule="evenodd">
        <g id="neat_faq" transform="translate(-1149.000000, -577.000000)" fill="#0E001B">
            <path d="M1157,577 C1157.55228,577 1158,577.447715 1158,578 L1158,582.999 L1163,583 C1163.55228,583 1164,583.447715 1164,584 L1164,585 C1164,585.552285 1163.55228,586 1163,586 L1158,586 L1158,591 C1158,591.552285 1157.55228,592 1157,592 L1156,592 C1155.44772,592 1155,591.552285 1155,591 L1155,586 L1150,586 C1149.44772,586 1149,585.552285 1149,585 L1149,584 C1149,583.447715 1149.44772,583 1150,583 L1155,583 L1155,578 C1155,577.447715 1155.44772,577 1156,577 L1157,577 Z" id="Combined-Shape"></path>
        </g>
    </g>
</svg>