<?xml version="1.0" encoding="UTF-8"?>
<svg width="48px" height="48px" viewBox="0 0 48 48" version="1.1" xmlns="http://www.w3.org/2000/svg" xmlns:xlink="http://www.w3.org/1999/xlink">
    <!-- Generator: Sketch 60 (88103) - https://sketch.com -->
    <title>sktype</title>
    <desc>Created with Sketch.</desc>
    <g id="edit_last" stroke="none" stroke-width="1" fill="none" fill-rule="evenodd">
        <g id="3" transform="translate(-546.000000, -560.000000)" fill="#3C2A4B" fill-rule="nonzero">
            <g id="sktype" transform="translate(546.000000, 560.000000)">
                <path d="M46.3010531,28.0069214 C46.2858501,28.0915023 46.2752079,28.1768451 46.2592446,28.2614257 L46.1771479,27.7768005 C46.2219969,27.8522375 46.2592446,27.9307225 46.3010531,28.0069214 C46.5488638,26.6551521 46.6788502,25.2713792 46.6788502,23.8883685 C46.6788502,20.8213611 46.0798479,17.8457924 44.8962862,15.0447192 C43.7545331,12.3388948 42.1209596,9.9089105 40.0381344,7.82258344 C37.9583498,5.73625639 35.5326945,4.09874112 32.8349038,2.954233 C30.0413334,1.76933945 27.0729274,1.16889178 24.0133027,1.16889178 C22.5712883,1.16889178 21.1269934,1.3045259 19.7214664,1.57503214 C19.7184259,1.57579413 19.7146251,1.57579413 19.7108243,1.57655612 C19.7898804,1.61846554 19.8696967,1.65580302 19.9472325,1.69923642 L19.4706152,1.62456146 C19.5504315,1.60932167 19.6310079,1.5925579 19.7108243,1.57655612 C17.7823106,0.548632386 15.6135878,0 13.4182596,0 C9.8341278,0 6.4643598,1.39901259 3.93000238,3.94024732 C1.3964051,6.48072007 0,9.8586192 0,13.4513993 C0,15.7381296 0.586839814,17.9859984 1.6883047,19.9725048 C1.70274764,19.89021 1.71262966,19.8071532 1.72859292,19.7248583 L1.81068968,20.2011017 C1.76812099,20.1264267 1.73087339,20.0487039 1.6883047,19.9725048 C1.46481907,21.2595051 1.34699501,22.5746988 1.34699501,23.8883685 C1.34699501,26.956138 1.94599731,29.9309446 3.12955896,32.7327799 C4.26979176,35.4393663 5.90412542,37.8678265 7.98467021,39.9541536 C10.0674955,42.0404806 12.4901101,43.6802818 15.1909415,44.8217421 C17.9845118,46.0089216 20.9536781,46.6101312 24.0133027,46.6101312 C25.3450946,46.6101312 26.6799272,46.4882129 27.9828332,46.2565681 C27.9068177,46.2138967 27.8292817,46.1750353 27.751746,46.1300778 L28.2359648,46.2154206 C28.1523478,46.2314225 28.0679706,46.2413284 27.9828332,46.2565681 C29.990403,47.3949804 32.2632671,48 34.5840208,48 C38.1673926,48 41.5356401,46.6032732 44.0699976,44.0612766 C46.6051151,41.5223277 48,38.1436666 48,34.5508866 C48,32.2565364 47.4101196,30.0010476 46.3010531,28.0069214 L46.3010531,28.0069214 Z M24.1037612,37.8030574 C16.0514372,37.8030574 12.4490617,33.8346164 12.4490617,30.8605718 C12.4490617,29.3350688 13.5725711,28.2659977 15.1210072,28.2659977 C18.5667907,28.2659977 17.6743685,33.225787 24.1037612,33.225787 C27.3952331,33.225787 29.2127642,31.4343498 29.2127642,29.6010033 C29.2127642,28.4984046 28.6700134,27.2761734 26.5028109,26.7404949 L19.3406287,24.9482958 C13.5725711,23.49823 12.5258374,20.3725493 12.5258374,17.4343181 C12.5258374,11.3338307 18.2558872,9.0432905 23.6370259,9.0432905 C28.5939979,9.0432905 34.4373109,11.7895004 34.4373109,15.4493356 C34.4373109,17.0175098 33.0827143,17.9296112 31.5350383,17.9296112 C28.5939979,17.9296112 29.1352284,13.8491578 23.211339,13.8491578 C20.2718188,13.8491578 18.6435664,15.1834013 18.6435664,17.0929468 C18.6435664,18.9986824 20.9650804,19.6075118 22.9810119,20.0677536 L28.2823342,21.2473132 C34.0891599,22.5442191 35.5615806,25.9426919 35.5615806,29.1438096 C35.5615806,34.1013128 31.7653654,37.8030574 24.1037612,37.8030574 Z M27.751746,46.1320476 C27.8292818,46.1798868 27.9068177,46.2212392 27.9828332,46.2666458 C28.0679706,46.2504292 28.1523478,46.2398884 28.2359648,46.2228608 L27.751746,46.1320476 Z M46.2668375,28.2614257 C46.2838651,28.1768451 46.2952167,28.0915023 46.3114333,28.0069214 C46.2668375,27.9307225 46.2271067,27.8522375 46.1792677,27.7768005 L46.2668375,28.2614257 Z M1.7334493,19.7248583 C1.71642183,19.8071532 1.70588101,19.89021 1.6904752,19.9725048 C1.7358818,20.0487039 1.77561258,20.1264267 1.82101918,20.2011017 L1.7334493,19.7248583 Z M19.9472325,1.70919205 C19.8696967,1.66297461 19.7898804,1.62324383 19.7108242,1.57864806 C19.6310079,1.59567554 19.5504315,1.61351385 19.4706152,1.62973049 L19.9472325,1.70919205 Z" id="Shape"></path>
            </g>
        </g>
    </g>
</svg>